<?xml version="1.0" encoding="UTF-8"?><svg id="Layer_1" xmlns="http://www.w3.org/2000/svg" xmlns:xlink="http://www.w3.org/1999/xlink" viewBox="0 0 334.7582348392 334.7582348392"><defs><clipPath id="clippath"><path d="M167.3791174196,125.3550404714c-33.316707361,0-60.4208999738-27.0231579807-60.4208999738-60.2386252247S134.0624100585,4.8791174196,167.3791174196,4.8791174196s60.4208999738,27.0218305832,60.4208999738,60.2372978272-27.1041926127,60.2386252247-60.4208999738,60.2386252247ZM227.8000173934,269.6418195924c0-33.2154672439-27.1041926127-60.2386252247-60.4208999738-60.2386252247s-60.4208999738,27.0231579807-60.4208999738,60.2386252247,27.1041926127,60.2372978272,60.4208999738,60.2372978272,60.4208999738-27.0218305832,60.4208999738-60.2372978272ZM329.8791174196,167.3791174196c0-33.2154672439-27.1041926127-60.2372978272-60.4208999738-60.2372978272s-60.4208999738,27.0218305832-60.4208999738,60.2372978272,27.1041926127,60.2372978272,60.4208999738,60.2372978272,60.4208999738-27.0218305832,60.4208999738-60.2372978272ZM125.7209173671,167.3791174196c0-33.2154672439-27.1041926127-60.2372978272-60.4208999738-60.2372978272S4.8791174196,134.1636501757,4.8791174196,167.3791174196s27.1041926127,60.2372978272,60.4208999738,60.2372978272,60.4208999738-27.0218305832,60.4208999738-60.2372978272Z" style="fill:none; stroke-width:0px;"/></clipPath><linearGradient id="linear-gradient" x1="167.3791174196" y1="-60.1317887936" x2="167.3791174196" y2="394.8900236328" gradientUnits="userSpaceOnUse"><stop offset="0" stop-color="#237705"/><stop offset="1" stop-color="#143304"/></linearGradient></defs><g style="clip-path:url(#clippath);"><rect x="-60.8252377408" y="-60.1317887936" width="456.4087103208" height="455.0218124264" style="fill:url(#linear-gradient); stroke-width:0px;"/></g><ellipse cx="167.3791174196" cy="65.1170609892" rx="53.6039326516" ry="53.4410453542" style="fill:#f6fc3e; stroke-width:0px;"/><ellipse cx="167.3791174196" cy="269.6411738499" rx="53.6039326516" ry="53.4410453543" style="fill:#f6fc3e; stroke-width:0px;"/><ellipse cx="269.4587295263" cy="167.3791174196" rx="53.6039326516" ry="53.4410453542" style="fill:#f6fc3e; stroke-width:0px;"/><ellipse cx="65.2995053129" cy="167.3791174196" rx="53.6039326516" ry="53.4410453542" style="fill:#f6fc3e; stroke-width:0px;"/></svg>